<svg xmlns="http://www.w3.org/2000/svg" xmlns:xlink="http://www.w3.org/1999/xlink" xmlns:s="https://github.com/nturley/netlistsvg" width="920" height="1062.5">
  <style>svg {
    stroke:#000;
    fill:none;
  }
  text {
    fill:#000;
    stroke:none;
    font-size:10px;
    font-weight: bold;
    font-family: "Courier New", monospace;
  }
  .nodelabel {
    text-anchor: middle;
  }
  .inputPortLabel {
    text-anchor: end;
  }
  .splitjoinBody {
    fill:#000;
  }</style>
  <g s:type="add" transform="translate(325.33333333333337,137)" s:width="25" s:height="25" id="cell_$add$fifo.v:69$16">
    <s:alias val="$add"/>
    <circle r="12.5" cx="12.5" cy="12.5" class="cell_$add$fifo.v:69$16"/>
    <line x1="7.5" x2="17.5" y1="12.5" y2="12.5" class="cell_$add$fifo.v:69$16"/>
    <line x1="12.5" x2="12.5" y1="7.5" y2="17.5" class="cell_$add$fifo.v:69$16"/>
    <g s:x="3" s:y="5" s:pid="A"/>
    <g s:x="3" s:y="20" s:pid="B"/>
    <g s:x="25" s:y="12.5" s:pid="Y"/>
  </g>
  <g s:type="add" transform="translate(736,885.5)" s:width="25" s:height="25" id="cell_$add$fifo.v:76$19">
    <s:alias val="$add"/>
    <circle r="12.5" cx="12.5" cy="12.5" class="cell_$add$fifo.v:76$19"/>
    <line x1="7.5" x2="17.5" y1="12.5" y2="12.5" class="cell_$add$fifo.v:76$19"/>
    <line x1="12.5" x2="12.5" y1="7.5" y2="17.5" class="cell_$add$fifo.v:76$19"/>
    <g s:x="3" s:y="5" s:pid="A"/>
    <g s:x="3" s:y="20" s:pid="B"/>
    <g s:x="25" s:y="12.5" s:pid="Y"/>
  </g>
  <g s:type="eq" transform="translate(422.6666666666667,144.5)" s:width="25" s:height="25" id="cell_$eq$fifo.v:85$23">
    <s:alias val="$eq"/>
    <circle r="12.5" cx="12.5" cy="12.5" class="cell_$eq$fifo.v:85$23"/>
    <line x1="7.5" x2="17.5" y1="10" y2="10" class="cell_$eq$fifo.v:85$23"/>
    <line x1="7.5" x2="17.5" y1="15" y2="15" class="cell_$eq$fifo.v:85$23"/>
    <g s:x="3" s:y="5" s:pid="A"/>
    <g s:x="3" s:y="20" s:pid="B"/>
    <g s:x="25" s:y="12.5" s:pid="Y"/>
  </g>
  <g s:type="eq" transform="translate(552.6666666666667,666)" s:width="25" s:height="25" id="cell_$eq$fifo.v:86$24">
    <s:alias val="$eq"/>
    <circle r="12.5" cx="12.5" cy="12.5" class="cell_$eq$fifo.v:86$24"/>
    <line x1="7.5" x2="17.5" y1="10" y2="10" class="cell_$eq$fifo.v:86$24"/>
    <line x1="7.5" x2="17.5" y1="15" y2="15" class="cell_$eq$fifo.v:86$24"/>
    <g s:x="3" s:y="5" s:pid="A"/>
    <g s:x="3" s:y="20" s:pid="B"/>
    <g s:x="25" s:y="12.5" s:pid="Y"/>
  </g>
  <g s:type="and" transform="translate(551,264)" s:width="30" s:height="25" id="cell_$logic_and$fifo.v:50$8">
    <s:alias val="$and"/>
    <s:alias val="$logic_and"/>
    <s:alias val="$_AND_"/>
    <path d="M0,0 L0,25 L15,25 A15 12.5 0 0 0 15,0 Z" class="cell_$logic_and$fifo.v:50$8"/>
    <g s:x="0" s:y="5" s:pid="A"/>
    <g s:x="0" s:y="20" s:pid="B"/>
    <g s:x="30" s:y="12.5" s:pid="Y"/>
  </g>
  <g s:type="and" transform="translate(734.3333333333334,825.5)" s:width="30" s:height="25" id="cell_$logic_and$fifo.v:75$18">
    <s:alias val="$and"/>
    <s:alias val="$logic_and"/>
    <s:alias val="$_AND_"/>
    <path d="M0,0 L0,25 L15,25 A15 12.5 0 0 0 15,0 Z" class="cell_$logic_and$fifo.v:75$18"/>
    <g s:x="0" s:y="5" s:pid="A"/>
    <g s:x="0" s:y="20" s:pid="B"/>
    <g s:x="30" s:y="12.5" s:pid="Y"/>
  </g>
  <g s:type="not" transform="translate(486,274)" s:width="30" s:height="20" id="cell_$logic_not$fifo.v:50$7">
    <s:alias val="$_NOT_"/>
    <s:alias val="$not"/>
    <s:alias val="$logic_not"/>
    <path d="M0,0 L0,20 L20,10 Z" class="cell_$logic_not$fifo.v:50$7"/>
    <circle cx="23" cy="10" r="3" class="cell_$logic_not$fifo.v:50$7"/>
    <g s:x="0" s:y="10" s:pid="A"/>
    <g s:x="25" s:y="10" s:pid="Y"/>
  </g>
  <g s:type="not" transform="translate(621,835.5)" s:width="30" s:height="20" id="cell_$logic_not$fifo.v:75$17">
    <s:alias val="$_NOT_"/>
    <s:alias val="$not"/>
    <s:alias val="$logic_not"/>
    <path d="M0,0 L0,20 L20,10 Z" class="cell_$logic_not$fifo.v:75$17"/>
    <circle cx="23" cy="10" r="3" class="cell_$logic_not$fifo.v:75$17"/>
    <g s:x="0" s:y="10" s:pid="A"/>
    <g s:x="25" s:y="10" s:pid="Y"/>
  </g>
  <g s:type="generic" transform="translate(179,548)" s:width="30" s:height="40" id="cell_$procdff$43">
    <text x="15" y="-4" class="nodelabel cell_$procdff$43" s:attribute="ref">$adff</text>
    <rect width="30" height="60" s:generic="body" class="cell_$procdff$43"/>
    <g transform="translate(0,10)" s:x="0" s:y="10" s:pid="in0" id="port_$procdff$43~ARST">
      <text x="-3" y="-4" class="inputPortLabel cell_$procdff$43">ARST</text>
    </g>
    <g transform="translate(0,30)" s:x="0" s:y="10" s:pid="in0" id="port_$procdff$43~CLK">
      <text x="-3" y="-4" class="inputPortLabel cell_$procdff$43">CLK</text>
    </g>
    <g transform="translate(0,50)" s:x="0" s:y="10" s:pid="in0" id="port_$procdff$43~D">
      <text x="-3" y="-4" class="inputPortLabel cell_$procdff$43">D</text>
    </g>
    <g transform="translate(30,10)" s:x="30" s:y="10" s:pid="out0" id="port_$procdff$43~Q">
      <text x="5" y="-4" style="fill:#000; stroke:none" class="cell_$procdff$43">Q</text>
    </g>
  </g>
  <g s:type="generic" transform="translate(320,675.5)" s:width="30" s:height="40" id="cell_$procdff$44">
    <text x="15" y="-4" class="nodelabel cell_$procdff$44" s:attribute="ref">$adff</text>
    <rect width="30" height="60" s:generic="body" class="cell_$procdff$44"/>
    <g transform="translate(0,10)" s:x="0" s:y="10" s:pid="in0" id="port_$procdff$44~ARST">
      <text x="-3" y="-4" class="inputPortLabel cell_$procdff$44">ARST</text>
    </g>
    <g transform="translate(0,30)" s:x="0" s:y="10" s:pid="in0" id="port_$procdff$44~CLK">
      <text x="-3" y="-4" class="inputPortLabel cell_$procdff$44">CLK</text>
    </g>
    <g transform="translate(0,50)" s:x="0" s:y="10" s:pid="in0" id="port_$procdff$44~D">
      <text x="-3" y="-4" class="inputPortLabel cell_$procdff$44">D</text>
    </g>
    <g transform="translate(30,10)" s:x="30" s:y="10" s:pid="out0" id="port_$procdff$44~Q">
      <text x="5" y="-4" style="fill:#000; stroke:none" class="cell_$procdff$44">Q</text>
    </g>
  </g>
  <g s:type="generic" transform="translate(734.5,955.5)" s:width="30" s:height="40" id="cell_$procdff$48">
    <text x="15" y="-4" class="nodelabel cell_$procdff$48" s:attribute="ref">$adff</text>
    <rect width="30" height="60" s:generic="body" class="cell_$procdff$48"/>
    <g transform="translate(0,10)" s:x="0" s:y="10" s:pid="in0" id="port_$procdff$48~ARST">
      <text x="-3" y="-4" class="inputPortLabel cell_$procdff$48">ARST</text>
    </g>
    <g transform="translate(0,30)" s:x="0" s:y="10" s:pid="in0" id="port_$procdff$48~CLK">
      <text x="-3" y="-4" class="inputPortLabel cell_$procdff$48">CLK</text>
    </g>
    <g transform="translate(0,50)" s:x="0" s:y="10" s:pid="in0" id="port_$procdff$48~D">
      <text x="-3" y="-4" class="inputPortLabel cell_$procdff$48">D</text>
    </g>
    <g transform="translate(30,10)" s:x="30" s:y="10" s:pid="out0" id="port_$procdff$48~Q">
      <text x="5" y="-4" style="fill:#000; stroke:none" class="cell_$procdff$48">Q</text>
    </g>
  </g>
  <g s:type="mux" transform="translate(848,292)" s:width="20" s:height="40" id="cell_$procmux$26">
    <s:alias val="$pmux"/>
    <s:alias val="$mux"/>
    <s:alias val="$_MUX_"/>
    <path d="M0,0 L20,10 L20,30 L0,40 Z" class="cell_$procmux$26"/>
    <g s:x="0" s:y="10" s:pid="A"/>
    <g s:x="0" s:y="30" s:pid="B"/>
    <g s:x="10" s:y="35" s:pid="S"/>
    <g s:x="20" s:y="20" s:pid="Y"/>
  </g>
  <g s:type="mux" transform="translate(848,749.5)" s:width="20" s:height="40" id="cell_$procmux$29">
    <s:alias val="$pmux"/>
    <s:alias val="$mux"/>
    <s:alias val="$_MUX_"/>
    <path d="M0,0 L20,10 L20,30 L0,40 Z" class="cell_$procmux$29"/>
    <g s:x="0" s:y="10" s:pid="A"/>
    <g s:x="0" s:y="30" s:pid="B"/>
    <g s:x="10" s:y="35" s:pid="S"/>
    <g s:x="20" s:y="20" s:pid="Y"/>
  </g>
  <g s:type="mux" transform="translate(848,12)" s:width="20" s:height="40" id="cell_$procmux$32">
    <s:alias val="$pmux"/>
    <s:alias val="$mux"/>
    <s:alias val="$_MUX_"/>
    <path d="M0,0 L20,10 L20,30 L0,40 Z" class="cell_$procmux$32"/>
    <g s:x="0" s:y="10" s:pid="A"/>
    <g s:x="0" s:y="30" s:pid="B"/>
    <g s:x="10" s:y="35" s:pid="S"/>
    <g s:x="20" s:y="20" s:pid="Y"/>
  </g>
  <g s:type="mux" transform="translate(489.3333333333333,331)" s:width="20" s:height="40" id="cell_$procmux$35">
    <s:alias val="$pmux"/>
    <s:alias val="$mux"/>
    <s:alias val="$_MUX_"/>
    <path d="M0,0 L20,10 L20,30 L0,40 Z" class="cell_$procmux$35"/>
    <g s:x="0" s:y="10" s:pid="A"/>
    <g s:x="0" s:y="30" s:pid="B"/>
    <g s:x="10" s:y="35" s:pid="S"/>
    <g s:x="20" s:y="20" s:pid="Y"/>
  </g>
  <g s:type="mux" transform="translate(626,413)" s:width="20" s:height="40" id="cell_$procmux$38">
    <s:alias val="$pmux"/>
    <s:alias val="$mux"/>
    <s:alias val="$_MUX_"/>
    <path d="M0,0 L20,10 L20,30 L0,40 Z" class="cell_$procmux$38"/>
    <g s:x="0" s:y="10" s:pid="A"/>
    <g s:x="0" s:y="30" s:pid="B"/>
    <g s:x="10" s:y="35" s:pid="S"/>
    <g s:x="20" s:y="20" s:pid="Y"/>
  </g>
  <g s:type="mux" transform="translate(626,168)" s:width="20" s:height="40" id="cell_$procmux$41">
    <s:alias val="$pmux"/>
    <s:alias val="$mux"/>
    <s:alias val="$_MUX_"/>
    <path d="M0,0 L20,10 L20,30 L0,40 Z" class="cell_$procmux$41"/>
    <g s:x="0" s:y="10" s:pid="A"/>
    <g s:x="0" s:y="30" s:pid="B"/>
    <g s:x="10" s:y="35" s:pid="S"/>
    <g s:x="20" s:y="20" s:pid="Y"/>
  </g>
  <g s:type="generic" transform="translate(734,311.5)" s:width="30" s:height="40" id="cell_MEM">
    <text x="15" y="-4" class="nodelabel cell_MEM" s:attribute="ref">$mem_v2</text>
    <rect width="30" height="180" s:generic="body" class="cell_MEM"/>
    <g transform="translate(0,10)" s:x="0" s:y="10" s:pid="in0" id="port_MEM~RD_ADDR">
      <text x="-3" y="-4" class="inputPortLabel cell_MEM">RD_ADDR</text>
    </g>
    <g transform="translate(0,30)" s:x="0" s:y="10" s:pid="in0" id="port_MEM~RD_ARST">
      <text x="-3" y="-4" class="inputPortLabel cell_MEM">RD_ARST</text>
    </g>
    <g transform="translate(0,50)" s:x="0" s:y="10" s:pid="in0" id="port_MEM~RD_CLK">
      <text x="-3" y="-4" class="inputPortLabel cell_MEM">RD_CLK</text>
    </g>
    <g transform="translate(0,70)" s:x="0" s:y="10" s:pid="in0" id="port_MEM~RD_EN">
      <text x="-3" y="-4" class="inputPortLabel cell_MEM">RD_EN</text>
    </g>
    <g transform="translate(0,90)" s:x="0" s:y="10" s:pid="in0" id="port_MEM~RD_SRST">
      <text x="-3" y="-4" class="inputPortLabel cell_MEM">RD_SRST</text>
    </g>
    <g transform="translate(0,110)" s:x="0" s:y="10" s:pid="in0" id="port_MEM~WR_ADDR">
      <text x="-3" y="-4" class="inputPortLabel cell_MEM">WR_ADDR</text>
    </g>
    <g transform="translate(0,130)" s:x="0" s:y="10" s:pid="in0" id="port_MEM~WR_CLK">
      <text x="-3" y="-4" class="inputPortLabel cell_MEM">WR_CLK</text>
    </g>
    <g transform="translate(0,150)" s:x="0" s:y="10" s:pid="in0" id="port_MEM~WR_DATA">
      <text x="-3" y="-4" class="inputPortLabel cell_MEM">WR_DATA</text>
    </g>
    <g transform="translate(0,170)" s:x="0" s:y="10" s:pid="in0" id="port_MEM~WR_EN">
      <text x="-3" y="-4" class="inputPortLabel cell_MEM">WR_EN</text>
    </g>
    <g transform="translate(30,10)" s:x="30" s:y="10" s:pid="out0" id="port_MEM~RD_DATA">
      <text x="5" y="-4" style="fill:#000; stroke:none" class="cell_MEM">RD_DATA</text>
    </g>
  </g>
  <g s:type="inputExt" transform="translate(84,976)" s:width="30" s:height="20" id="cell_clk">
    <text x="15" y="-4" class="nodelabel cell_clk" s:attribute="ref">clk</text>
    <s:alias val="$_inputExt_"/>
    <path d="M0,0 L0,20 L15,20 L30,10 L15,0 Z" class="cell_clk"/>
    <g s:x="28" s:y="10" s:pid="Y"/>
  </g>
  <g s:type="inputExt" transform="translate(84,911)" s:width="30" s:height="20" id="cell_rst">
    <text x="15" y="-4" class="nodelabel cell_rst" s:attribute="ref">rst</text>
    <s:alias val="$_inputExt_"/>
    <path d="M0,0 L0,20 L15,20 L30,10 L15,0 Z" class="cell_rst"/>
    <g s:x="28" s:y="10" s:pid="Y"/>
  </g>
  <g s:type="inputExt" transform="translate(486,219)" s:width="30" s:height="20" id="cell_wr_en">
    <text x="15" y="-4" class="nodelabel cell_wr_en" s:attribute="ref">wr_en</text>
    <s:alias val="$_inputExt_"/>
    <path d="M0,0 L0,20 L15,20 L30,10 L15,0 Z" class="cell_wr_en"/>
    <g s:x="28" s:y="10" s:pid="Y"/>
  </g>
  <g s:type="inputExt" transform="translate(621,780.5)" s:width="30" s:height="20" id="cell_rd_en">
    <text x="15" y="-4" class="nodelabel cell_rd_en" s:attribute="ref">rd_en</text>
    <s:alias val="$_inputExt_"/>
    <path d="M0,0 L0,20 L15,20 L30,10 L15,0 Z" class="cell_rd_en"/>
    <g s:x="28" s:y="10" s:pid="Y"/>
  </g>
  <g s:type="inputExt" transform="translate(551,433)" s:width="30" s:height="20" id="cell_d_in">
    <text x="15" y="-4" class="nodelabel cell_d_in" s:attribute="ref">d_in</text>
    <s:alias val="$_inputExt_"/>
    <path d="M0,0 L0,20 L15,20 L30,10 L15,0 Z" class="cell_d_in"/>
    <g s:x="28" s:y="10" s:pid="Y"/>
  </g>
  <g s:type="outputExt" transform="translate(848,956)" s:width="30" s:height="20" id="cell_d_out">
    <text x="15" y="-4" class="nodelabel cell_d_out" s:attribute="ref">d_out</text>
    <s:alias val="$_outputExt_"/>
    <path d="M30,0 L30,20 L15,20 L0,10 L15,0 Z" class="cell_d_out"/>
    <g s:x="0" s:y="10" s:pid="A"/>
  </g>
  <g s:type="outputExt" transform="translate(848,147)" s:width="30" s:height="20" id="cell_full">
    <text x="15" y="-4" class="nodelabel cell_full" s:attribute="ref">full</text>
    <s:alias val="$_outputExt_"/>
    <path d="M30,0 L30,20 L15,20 L0,10 L15,0 Z" class="cell_full"/>
    <g s:x="0" s:y="10" s:pid="A"/>
  </g>
  <g s:type="outputExt" transform="translate(848,82)" s:width="30" s:height="20" id="cell_empty">
    <text x="15" y="-4" class="nodelabel cell_empty" s:attribute="ref">empty</text>
    <s:alias val="$_outputExt_"/>
    <path d="M30,0 L30,20 L15,20 L0,10 L15,0 Z" class="cell_empty"/>
    <g s:x="0" s:y="10" s:pid="A"/>
  </g>
  <g s:type="constant" transform="translate(179,656)" s:width="30" s:height="20" id="cell_1">
    <text x="15" y="-4" class="nodelabel cell_1" s:attribute="ref">1</text>
    <s:alias val="$_constant_"/>
    <rect width="30" height="20" class="cell_1"/>
    <g s:x="30" s:y="10" s:pid="Y"/>
  </g>
  <g s:type="constant" transform="translate(421,331)" s:width="30" s:height="20" id="cell_0">
    <text x="15" y="-4" class="nodelabel cell_0" s:attribute="ref">0</text>
    <s:alias val="$_constant_"/>
    <rect width="30" height="20" class="cell_0"/>
    <g s:x="30" s:y="10" s:pid="Y"/>
  </g>
  <g s:type="join" transform="translate(66,12)" s:width="4" s:height="40" id="cell_$join$,x,x,x,x,x,x,x,x,">
    <rect width="5" height="40" class="splitjoinBody" s:generic="body"/>
    <s:alias val="$_join_"/>
    <g s:x="5" s:y="20" s:pid="out"/>
    <g transform="translate(0,10)" s:x="0" s:y="10" s:pid="in0">
      <text x="-3" y="-4" class="inputPortLabel">0:2</text>
    </g>
  </g>
  <g s:type="join" transform="translate(624.7142857142857,485)" s:width="4" s:height="40" id="cell_$join$,62,62,62,62,62,62,62,62,">
    <rect width="5" height="160" class="splitjoinBody" s:generic="body"/>
    <s:alias val="$_join_"/>
    <g s:x="5" s:y="20" s:pid="out"/>
    <g transform="translate(0,10)" s:x="0" s:y="10" s:pid="in0">
      <text x="-3" y="-4" class="inputPortLabel">0</text>
    </g>
    <g transform="translate(0,30)" s:x="0" s:y="10" s:pid="in0">
      <text x="-3" y="-4" class="inputPortLabel">1</text>
    </g>
    <g transform="translate(0,50)" s:x="0" s:y="10" s:pid="in0">
      <text x="-3" y="-4" class="inputPortLabel">2</text>
    </g>
    <g transform="translate(0,70)" s:x="0" s:y="10" s:pid="in0">
      <text x="-3" y="-4" class="inputPortLabel">3</text>
    </g>
    <g transform="translate(0,90)" s:x="0" s:y="10" s:pid="in0">
      <text x="-3" y="-4" class="inputPortLabel">4</text>
    </g>
    <g transform="translate(0,110)" s:x="0" s:y="10" s:pid="in0">
      <text x="-3" y="-4" class="inputPortLabel">5</text>
    </g>
    <g transform="translate(0,130)" s:x="0" s:y="10" s:pid="in0">
      <text x="-3" y="-4" class="inputPortLabel">6</text>
    </g>
    <g transform="translate(0,150)" s:x="0" s:y="10" s:pid="in0">
      <text x="-3" y="-4" class="inputPortLabel">7</text>
    </g>
  </g>
  <g s:type="split" transform="translate(57,87)" s:width="5" s:height="40" id="cell_$split$,x,x,x,">
    <rect width="5" height="20" class="splitjoinBody" s:generic="body"/>
    <s:alias val="$_split_"/>
    <g s:x="0" s:y="20" s:pid="in"/>
    <g transform="translate(4,10)" s:x="4" s:y="10" s:pid="out0">
      <text x="5" y="-4">0</text>
    </g>
  </g>
  <line x1="210" x2="255" y1="558.5" y2="558.5" class="net_24,25,26"/>
  <line x1="255" x2="255" y1="558.5" y2="142" class="net_24,25,26"/>
  <circle cx="255" cy="558.5" r="2" style="fill:#000" class="net_24,25,26"/>
  <circle cx="255" cy="142" r="2" style="fill:#000" class="net_24,25,26"/>
  <line x1="255" x2="328.33333333333337" y1="142" y2="142" class="net_24,25,26"/>
  <line x1="210" x2="526" y1="558.5" y2="558.5" class="net_24,25,26"/>
  <line x1="526" x2="526" y1="558.5" y2="671" class="net_24,25,26"/>
  <line x1="526" x2="555.6666666666667" y1="671" y2="671" class="net_24,25,26"/>
  <line x1="210" x2="255" y1="558.5" y2="558.5" class="net_24,25,26"/>
  <line x1="255" x2="255" y1="558.5" y2="31" class="net_24,25,26"/>
  <line x1="255" x2="818" y1="31" y2="31" class="net_24,25,26"/>
  <line x1="818" x2="818" y1="31" y2="22" class="net_24,25,26"/>
  <line x1="818" x2="848" y1="22" y2="22" class="net_24,25,26"/>
  <line x1="210" x2="255" y1="558.5" y2="558.5" class="net_24,25,26"/>
  <line x1="255" x2="255" y1="558.5" y2="198" class="net_24,25,26"/>
  <circle cx="255" cy="198" r="2" style="fill:#000" class="net_24,25,26"/>
  <line x1="255" x2="626" y1="198" y2="198" class="net_24,25,26"/>
  <line x1="209" x2="265" y1="666" y2="666" class="net_74"/>
  <line x1="265" x2="265" y1="666" y2="157" class="net_74"/>
  <circle cx="265" cy="666" r="2" style="fill:#000" class="net_74"/>
  <line x1="265" x2="328.33333333333337" y1="157" y2="157" class="net_74"/>
  <line x1="209" x2="265" y1="666" y2="666" class="net_74"/>
  <line x1="265" x2="265" y1="666" y2="905.5" class="net_74"/>
  <line x1="265" x2="739" y1="905.5" y2="905.5" class="net_74"/>
  <line x1="209" x2="265" y1="666" y2="666" class="net_74"/>
  <line x1="265" x2="265" y1="666" y2="391" class="net_74"/>
  <line x1="265" x2="471" y1="391" y2="391" class="net_74"/>
  <line x1="471" x2="471" y1="391" y2="361" class="net_74"/>
  <circle cx="265" cy="391" r="2" style="fill:#000" class="net_74"/>
  <circle cx="471" cy="391" r="2" style="fill:#000" class="net_74"/>
  <line x1="471" x2="489.3333333333333" y1="361" y2="361" class="net_74"/>
  <line x1="209" x2="265" y1="666" y2="666" class="net_74"/>
  <line x1="265" x2="265" y1="666" y2="391" class="net_74"/>
  <line x1="265" x2="661" y1="391" y2="391" class="net_74"/>
  <line x1="661" x2="661" y1="391" y2="382" class="net_74"/>
  <line x1="661" x2="734" y1="382" y2="382" class="net_74"/>
  <line x1="351" x2="396" y1="686" y2="686" class="net_30,31,32"/>
  <line x1="396" x2="396" y1="686" y2="890.5" class="net_30,31,32"/>
  <circle cx="396" cy="686" r="2" style="fill:#000" class="net_30,31,32"/>
  <line x1="396" x2="739" y1="890.5" y2="890.5" class="net_30,31,32"/>
  <line x1="351" x2="396" y1="686" y2="686" class="net_30,31,32"/>
  <line x1="396" x2="396" y1="686" y2="164.5" class="net_30,31,32"/>
  <line x1="396" x2="425.6666666666667" y1="164.5" y2="164.5" class="net_30,31,32"/>
  <line x1="351" x2="555.6666666666667" y1="686" y2="686" class="net_30,31,32"/>
  <line x1="351" x2="396" y1="686" y2="686" class="net_30,31,32"/>
  <line x1="396" x2="396" y1="686" y2="890.5" class="net_30,31,32"/>
  <line x1="396" x2="611" y1="890.5" y2="890.5" class="net_30,31,32"/>
  <line x1="611" x2="611" y1="890.5" y2="759.5" class="net_30,31,32"/>
  <circle cx="611" cy="890.5" r="2" style="fill:#000" class="net_30,31,32"/>
  <line x1="611" x2="848" y1="759.5" y2="759.5" class="net_30,31,32"/>
  <line x1="351" x2="396" y1="686" y2="686" class="net_30,31,32"/>
  <line x1="396" x2="396" y1="686" y2="309" class="net_30,31,32"/>
  <line x1="396" x2="671" y1="309" y2="309" class="net_30,31,32"/>
  <line x1="671" x2="671" y1="309" y2="322" class="net_30,31,32"/>
  <circle cx="396" cy="309" r="2" style="fill:#000" class="net_30,31,32"/>
  <line x1="671" x2="734" y1="322" y2="322" class="net_30,31,32"/>
  <line x1="350.33333333333337" x2="425.6666666666667" y1="149.5" y2="149.5" class="net_27,28,29"/>
  <line x1="350.33333333333337" x2="396" y1="149.5" y2="149.5" class="net_27,28,29"/>
  <line x1="396" x2="396" y1="149.5" y2="42" class="net_27,28,29"/>
  <circle cx="396" cy="149.5" r="2" style="fill:#000" class="net_27,28,29"/>
  <line x1="396" x2="848" y1="42" y2="42" class="net_27,28,29"/>
  <line x1="514" x2="526" y1="229" y2="229" class="net_4"/>
  <line x1="526" x2="526" y1="229" y2="269" class="net_4"/>
  <line x1="526" x2="551" y1="269" y2="269" class="net_4"/>
  <line x1="511" x2="551" y1="284" y2="284" class="net_36"/>
  <line x1="649" x2="661" y1="790.5" y2="790.5" class="net_5"/>
  <line x1="661" x2="661" y1="790.5" y2="830.5" class="net_5"/>
  <line x1="661" x2="734.3333333333334" y1="830.5" y2="830.5" class="net_5"/>
  <line x1="646" x2="734.3333333333334" y1="845.5" y2="845.5" class="net_38"/>
  <line x1="447.6666666666667" x2="461" y1="157" y2="157" class="net_22"/>
  <line x1="461" x2="461" y1="157" y2="284" class="net_22"/>
  <circle cx="461" cy="157" r="2" style="fill:#000" class="net_22"/>
  <line x1="461" x2="486" y1="284" y2="284" class="net_22"/>
  <line x1="447.6666666666667" x2="848" y1="157" y2="157" class="net_22"/>
  <line x1="577.6666666666667" x2="601" y1="678.5" y2="678.5" class="net_23"/>
  <line x1="601" x2="601" y1="678.5" y2="845.5" class="net_23"/>
  <circle cx="601" cy="678.5" r="2" style="fill:#000" class="net_23"/>
  <line x1="601" x2="621" y1="845.5" y2="845.5" class="net_23"/>
  <line x1="577.6666666666667" x2="601" y1="678.5" y2="678.5" class="net_23"/>
  <line x1="601" x2="601" y1="678.5" y2="92" class="net_23"/>
  <line x1="601" x2="848" y1="92" y2="92" class="net_23"/>
  <line x1="112" x2="124" y1="921" y2="921" class="net_3"/>
  <line x1="124" x2="124" y1="921" y2="558.5" class="net_3"/>
  <circle cx="124" cy="921" r="2" style="fill:#000" class="net_3"/>
  <line x1="124" x2="179" y1="558.5" y2="558.5" class="net_3"/>
  <line x1="112" x2="124" y1="921" y2="921" class="net_3"/>
  <line x1="124" x2="124" y1="921" y2="686" class="net_3"/>
  <circle cx="124" cy="686" r="2" style="fill:#000" class="net_3"/>
  <line x1="124" x2="320" y1="686" y2="686" class="net_3"/>
  <line x1="112" x2="661" y1="921" y2="921" class="net_3"/>
  <line x1="661" x2="661" y1="921" y2="966" class="net_3"/>
  <line x1="661" x2="734.5" y1="966" y2="966" class="net_3"/>
  <line x1="112" x2="144" y1="986" y2="986" class="net_2"/>
  <line x1="144" x2="144" y1="986" y2="578.5" class="net_2"/>
  <circle cx="144" cy="986" r="2" style="fill:#000" class="net_2"/>
  <line x1="144" x2="179" y1="578.5" y2="578.5" class="net_2"/>
  <line x1="112" x2="144" y1="986" y2="986" class="net_2"/>
  <line x1="144" x2="144" y1="986" y2="748.5" class="net_2"/>
  <line x1="144" x2="275" y1="748.5" y2="748.5" class="net_2"/>
  <line x1="275" x2="275" y1="748.5" y2="706" class="net_2"/>
  <circle cx="144" cy="748.5" r="2" style="fill:#000" class="net_2"/>
  <circle cx="275" cy="748.5" r="2" style="fill:#000" class="net_2"/>
  <line x1="275" x2="320" y1="706" y2="706" class="net_2"/>
  <line x1="112" x2="734.5" y1="986" y2="986" class="net_2"/>
  <line x1="112" x2="144" y1="986" y2="986" class="net_2"/>
  <line x1="144" x2="144" y1="986" y2="748.5" class="net_2"/>
  <line x1="144" x2="661" y1="748.5" y2="748.5" class="net_2"/>
  <line x1="661" x2="661" y1="748.5" y2="442" class="net_2"/>
  <line x1="661" x2="734" y1="442" y2="442" class="net_2"/>
  <line x1="868" x2="908" y1="32" y2="32" class="net_40,41,42"/>
  <line x1="908" x2="908" y1="32" y2="1028.5" class="net_40,41,42"/>
  <line x1="908" x2="134" y1="1028.5" y2="1028.5" class="net_40,41,42"/>
  <line x1="134" x2="134" y1="1028.5" y2="598.5" class="net_40,41,42"/>
  <line x1="134" x2="179" y1="598.5" y2="598.5" class="net_40,41,42"/>
  <line x1="868" x2="888" y1="769.5" y2="769.5" class="net_43,44,45"/>
  <line x1="888" x2="888" y1="769.5" y2="1049.5" class="net_43,44,45"/>
  <line x1="888" x2="285" y1="1049.5" y2="1049.5" class="net_43,44,45"/>
  <line x1="285" x2="285" y1="1049.5" y2="726" class="net_43,44,45"/>
  <line x1="285" x2="320" y1="726" y2="726" class="net_43,44,45"/>
  <line x1="868" x2="898" y1="312" y2="312" class="net_46,47,48,49,50,51,52,53"/>
  <line x1="898" x2="898" y1="312" y2="1039.5" class="net_46,47,48,49,50,51,52,53"/>
  <line x1="898" x2="681" y1="1039.5" y2="1039.5" class="net_46,47,48,49,50,51,52,53"/>
  <line x1="681" x2="681" y1="1039.5" y2="1006" class="net_46,47,48,49,50,51,52,53"/>
  <line x1="681" x2="734.5" y1="1006" y2="1006" class="net_46,47,48,49,50,51,52,53"/>
  <line x1="765.5" x2="818" y1="966" y2="966" class="net_14,15,16,17,18,19,20,21"/>
  <line x1="818" x2="818" y1="966" y2="302" class="net_14,15,16,17,18,19,20,21"/>
  <circle cx="818" cy="966" r="2" style="fill:#000" class="net_14,15,16,17,18,19,20,21"/>
  <line x1="818" x2="848" y1="302" y2="302" class="net_14,15,16,17,18,19,20,21"/>
  <line x1="765.5" x2="848" y1="966" y2="966" class="net_14,15,16,17,18,19,20,21"/>
  <line x1="765" x2="848" y1="322" y2="322" class="net_54,55,56,57,58,59,60,61"/>
  <line x1="764.3333333333334" x2="828" y1="838" y2="838" class="net_39"/>
  <line x1="828" x2="828" y1="838" y2="739.5" class="net_39"/>
  <line x1="828" x2="858" y1="739.5" y2="739.5" class="net_39"/>
  <circle cx="828" cy="838" r="2" style="fill:#000" class="net_39"/>
  <line x1="858" x2="858" y1="739.5" y2="327" class="net_39"/>
  <line x1="764.3333333333334" x2="858" y1="838" y2="838" class="net_39"/>
  <line x1="858" x2="858" y1="838" y2="784.5" class="net_39"/>
  <line x1="761" x2="838" y1="898" y2="898" class="net_33,34,35"/>
  <line x1="838" x2="838" y1="898" y2="779.5" class="net_33,34,35"/>
  <line x1="838" x2="848" y1="779.5" y2="779.5" class="net_33,34,35"/>
  <line x1="581" x2="591" y1="276.5" y2="276.5" class="net_37"/>
  <line x1="591" x2="591" y1="276.5" y2="62" class="net_37"/>
  <line x1="591" x2="858" y1="62" y2="62" class="net_37"/>
  <circle cx="591" cy="276.5" r="2" style="fill:#000" class="net_37"/>
  <line x1="858" x2="858" y1="62" y2="47" class="net_37"/>
  <line x1="581" x2="591" y1="276.5" y2="276.5" class="net_37"/>
  <line x1="591" x2="591" y1="276.5" y2="299" class="net_37"/>
  <line x1="591" x2="526" y1="299" y2="299" class="net_37"/>
  <line x1="526" x2="526" y1="299" y2="381" class="net_37"/>
  <line x1="526" x2="499.3333333333333" y1="381" y2="381" class="net_37"/>
  <circle cx="591" cy="299" r="2" style="fill:#000" class="net_37"/>
  <line x1="499.3333333333333" x2="499.3333333333333" y1="381" y2="366" class="net_37"/>
  <line x1="581" x2="591" y1="276.5" y2="276.5" class="net_37"/>
  <line x1="591" x2="591" y1="276.5" y2="463" class="net_37"/>
  <line x1="591" x2="636" y1="463" y2="463" class="net_37"/>
  <line x1="636" x2="636" y1="463" y2="448" class="net_37"/>
  <line x1="581" x2="636" y1="276.5" y2="276.5" class="net_37"/>
  <line x1="636" x2="636" y1="276.5" y2="203" class="net_37"/>
  <line x1="451" x2="489.3333333333333" y1="341" y2="341" class="net_76"/>
  <line x1="451" x2="461" y1="341" y2="341" class="net_76"/>
  <line x1="461" x2="461" y1="341" y2="320" class="net_76"/>
  <line x1="461" x2="661" y1="320" y2="320" class="net_76"/>
  <line x1="661" x2="661" y1="320" y2="342" class="net_76"/>
  <circle cx="461" cy="341" r="2" style="fill:#000" class="net_76"/>
  <line x1="661" x2="734" y1="342" y2="342" class="net_76"/>
  <line x1="451" x2="461" y1="341" y2="341" class="net_76"/>
  <line x1="461" x2="461" y1="341" y2="402" class="net_76"/>
  <line x1="461" x2="734" y1="402" y2="402" class="net_76"/>
  <line x1="579" x2="626" y1="443" y2="443" class="net_6,7,8,9,10,11,12,13"/>
  <line x1="646" x2="681" y1="188" y2="188" class="net_71,72,73"/>
  <line x1="681" x2="681" y1="188" y2="422" class="net_71,72,73"/>
  <line x1="681" x2="734" y1="422" y2="422" class="net_71,72,73"/>
  <line x1="646" x2="671" y1="433" y2="433" class="net_63,64,65,66,67,68,69,70"/>
  <line x1="671" x2="671" y1="433" y2="462" class="net_63,64,65,66,67,68,69,70"/>
  <line x1="671" x2="734" y1="462" y2="462" class="net_63,64,65,66,67,68,69,70"/>
  <line x1="630.7142857142857" x2="671" y1="505.5" y2="505.5" class="net_62,62,62,62,62,62,62,62"/>
  <line x1="671" x2="671" y1="505.5" y2="482" class="net_62,62,62,62,62,62,62,62"/>
  <line x1="671" x2="734" y1="482" y2="482" class="net_62,62,62,62,62,62,62,62"/>
  <line x1="22" x2="66" y1="22.5" y2="22.5" class="net_NaN,NaN,NaN"/>
  <line x1="22" x2="22" y1="22.5" y2="120" class="net_NaN,NaN,NaN"/>
  <line x1="22" x2="57.5" y1="120" y2="120" class="net_NaN,NaN,NaN"/>
  <line x1="57.5" x2="57.5" y1="120" y2="108" class="net_NaN,NaN,NaN"/>
  <line x1="509.3333333333333" x2="536" y1="351" y2="351" class="net_62"/>
  <line x1="536" x2="536" y1="351" y2="655" class="net_62"/>
  <line x1="536" x2="611" y1="655" y2="655" class="net_62"/>
  <line x1="611" x2="611" y1="655" y2="473" class="net_62"/>
  <line x1="611" x2="625.2142857142857" y1="473" y2="473" class="net_62"/>
  <circle cx="611" cy="655" r="2" style="fill:#000" class="net_62"/>
  <line x1="625.2142857142857" x2="625.2142857142857" y1="473" y2="495" class="net_62"/>
  <line x1="509.3333333333333" x2="536" y1="351" y2="351" class="net_62"/>
  <line x1="536" x2="536" y1="351" y2="655" class="net_62"/>
  <line x1="536" x2="611" y1="655" y2="655" class="net_62"/>
  <line x1="611" x2="611" y1="655" y2="515.5" class="net_62"/>
  <circle cx="611" cy="515.5" r="2" style="fill:#000" class="net_62"/>
  <line x1="611" x2="624.7142857142857" y1="515.5" y2="515.5" class="net_62"/>
  <line x1="509.3333333333333" x2="536" y1="351" y2="351" class="net_62"/>
  <line x1="536" x2="536" y1="351" y2="655" class="net_62"/>
  <line x1="536" x2="611" y1="655" y2="655" class="net_62"/>
  <line x1="611" x2="611" y1="655" y2="535.5" class="net_62"/>
  <circle cx="611" cy="535.5" r="2" style="fill:#000" class="net_62"/>
  <line x1="611" x2="624.7142857142857" y1="535.5" y2="535.5" class="net_62"/>
  <line x1="509.3333333333333" x2="536" y1="351" y2="351" class="net_62"/>
  <line x1="536" x2="536" y1="351" y2="655" class="net_62"/>
  <line x1="536" x2="611" y1="655" y2="655" class="net_62"/>
  <line x1="611" x2="611" y1="655" y2="555.5" class="net_62"/>
  <circle cx="611" cy="555.5" r="2" style="fill:#000" class="net_62"/>
  <line x1="611" x2="624.7142857142857" y1="555.5" y2="555.5" class="net_62"/>
  <line x1="509.3333333333333" x2="536" y1="351" y2="351" class="net_62"/>
  <line x1="536" x2="536" y1="351" y2="655" class="net_62"/>
  <line x1="536" x2="611" y1="655" y2="655" class="net_62"/>
  <line x1="611" x2="611" y1="655" y2="575.5" class="net_62"/>
  <circle cx="611" cy="575.5" r="2" style="fill:#000" class="net_62"/>
  <line x1="611" x2="624.7142857142857" y1="575.5" y2="575.5" class="net_62"/>
  <line x1="509.3333333333333" x2="536" y1="351" y2="351" class="net_62"/>
  <line x1="536" x2="536" y1="351" y2="655" class="net_62"/>
  <line x1="536" x2="611" y1="655" y2="655" class="net_62"/>
  <line x1="611" x2="611" y1="655" y2="595.5" class="net_62"/>
  <circle cx="611" cy="595.5" r="2" style="fill:#000" class="net_62"/>
  <line x1="611" x2="624.7142857142857" y1="595.5" y2="595.5" class="net_62"/>
  <line x1="509.3333333333333" x2="536" y1="351" y2="351" class="net_62"/>
  <line x1="536" x2="536" y1="351" y2="655" class="net_62"/>
  <line x1="536" x2="611" y1="655" y2="655" class="net_62"/>
  <line x1="611" x2="611" y1="655" y2="615.5" class="net_62"/>
  <circle cx="611" cy="615.5" r="2" style="fill:#000" class="net_62"/>
  <line x1="611" x2="624.7142857142857" y1="615.5" y2="615.5" class="net_62"/>
  <line x1="509.3333333333333" x2="536" y1="351" y2="351" class="net_62"/>
  <line x1="536" x2="536" y1="351" y2="655" class="net_62"/>
  <line x1="536" x2="625.2142857142857" y1="655" y2="655" class="net_62"/>
  <line x1="625.2142857142857" x2="625.2142857142857" y1="655" y2="636" class="net_62"/>
</svg>
